<?xml version="1.0" encoding="utf-8"?>
<!-- Generator: Adobe Illustrator 16.0.0, SVG Export Plug-In . SVG Version: 6.00 Build 0)  -->
<!DOCTYPE svg PUBLIC "-//W3C//DTD SVG 1.1//EN" "http://www.w3.org/Graphics/SVG/1.1/DTD/svg11.dtd">
<svg version="1.1" id="Layer_1" xmlns="http://www.w3.org/2000/svg" xmlns:xlink="http://www.w3.org/1999/xlink" x="0px" y="0px"
	 width="1600px" height="900px" viewBox="-80 0 1600 900" enable-background="new -80 0 1600 900" xml:space="preserve">
<filter  id="filter3889">
	<feGaussianBlur  stdDeviation="7.071968" id="feGaussianBlur3891"></feGaussianBlur>
</filter>
<filter  width="1.200397" height="1.18703" id="filter3863" x="-0.100199" y="-0.093515">
	<feGaussianBlur  stdDeviation="0.619973" id="feGaussianBlur3865"></feGaussianBlur>
</filter>
<title>pink camper van</title>
<g>
	<title>Layer 1</title>
	
		<g id="path8114" marker-end="none" marker-mid="none" marker-start="none" opacity="0.5" filter="url(#filter3889)" enable-background="new    ">
		<path fill="#FFFFFF" d="M523.466,2.687c-103.414,1.051-207.221,9.47-308.147,32.67c-30.047,8.141-58.718,23.762-78.96,47.735
			c-3.322,0.936-6.921,0.027-10.216,1.263c-2.708,0.557-5.355,1.391-7.956,2.342c-0.493,7.802-1.666,15.624-0.963,23.452
			C94.602,150.93,72.244,192.5,49.791,232.973c-1.318-8.568-3.142-18.327-10.365-23.935c-10.238-7.297-24.682-6.285-35.343-0.531
			c-9.186,5.695-13.178,17.463-11.311,27.771c-7.111,4.057-11.26,12.33-12.141,20.346c-1.177,9.313,2.95,19.164,11.11,24.048
			c3.608,2.224,6.401,5.888,6.628,10.151c1.369,7.812,0.468,15.93,0.594,23.789c-2.43,6.659-4.679,13.766-3.3,20.94
			c0.617,7.879-0.344,15.962,1.179,23.717c1.698,5.149,6.262,9.057,11.427,10.381c1.466,0.894,4.042,1.545,2.94,3.803
			c-0.08,8.394-4.573,15.558-8.647,22.511c-29.164,58.08-32.916,127.974-12.231,189.356c-16.708-3.921-35.205,10.588-34.164,27.97
			c-1.578,20.402,4.991,40.339,4.3,60.673c-2.614,9.224-7.405,18.19-6.314,28.068c0.482,15.767,8.548,30.095,18.075,42.188
			c-0.108,7.362,0.381,14.959,4.003,21.51c5.297,10.433,16.723,18.008,28.684,16.658c8.534-0.61,16.99-2.415,25.346-4.168
			c3.461-1.334,7.222-1.391,10.514,0.331c11.327,3.519,23.068,5.516,34.58,8.188c10.049,32.644,31.361,63.019,62.168,78.878
			c29.859,15.399,64.465,17.824,97.562,16.242c23.959-0.275,49.236-3.979,68.946-18.468c16.73-11.656,30.679-26.999,41.29-44.364
			c60.522,0.85,121.409,1.193,181.438-7.44c9.342,34.461,31.076,66.69,63.07,83.526c29.567,15.511,63.943,18.056,96.826,16.449
			c23.791-0.138,48.823-3.507,68.732-17.52c30.125-20.013,50.106-52.106,62.094-85.713c8.093-22.397,11.407-46.308,13.557-69.873
			c5.38-3.615,9.692-8.838,12.043-14.899c94.557-21.653,188.966-44.181,283.568-65.489c0.826,28.677,8.17,58.585,27.42,80.487
			c12.941,14.148,32.415,19.938,51.024,21.707c21.42,2.684,44.363,4.894,64.676-3.9c18.196-8.436,30.256-25.7,39.116-43.134
			c12.088-23.918,18.603-50.624,21.341-77.216c25.343,10.465,52.093,20.104,79.924,19.166c16.999-2.637,26.907-24.186,18.717-39.081
			c-1.028-2.079-2.377-4.035-4.001-5.698c5.884-11.268,7.027-25.097,2.856-37.169c3.407-5.653,6.931-11.246,8.803-17.623
			c5.651-16.172,3.547-36.18-9.229-48.493c-5.495-5.634-12.438-9.792-19.971-12.03c5.364-65.553-2.062-131.15-5.548-196.586
			c-0.377-4.964-0.164-9.849,0.731-14.716c1.043-10.573-2.283-21.077-7.534-30.072c-8.184-45.689-15.66-92.351-35.765-134.607
			c0.128-7.393-2.431-15.16-8.604-19.565c-4.677-3.333-10.683-4.365-14.985-8.363c-23.086-16.114-50.098-25.367-76.847-33.576
			c-49.229-13.582-100.206-18.967-150.802-24.806c-79.094-7.649-158.412-12.636-237.669-18.245
			C754.841,7.216,639.178,2.392,523.466,2.687z"/>
	</g>
	<path id="rect3643" marker-end="none" marker-mid="none" marker-start="none" fill="#CBCBCB" d="M12.615,251.585l0.341-19.82
		c-0.32-3.389,0.56-6.224,1.971-6.357l11.085-1.045c1.412-0.133,2.806,2.487,3.125,5.875l5.567,50.557
		c0.32,3.388-0.559,6.222-1.971,6.355l-9.037,0.918l-11.26-22.58L12.615,251.585z"/>
	<path id="rect3630" marker-end="none" marker-mid="none" marker-start="none" fill="#CBCBCB" d="M8.992,266.055
		c-5.104,0-8.194-2.726-8.194-6.129v-2.06c0-3.403,4.113-6.146,9.218-6.146h7.489c3.915,7.08,1.691,10.551,0,14.334
		c-0.615,0.032-1.747,0.042-2.948,0.04"/>
	<path id="path2387" marker-end="none" marker-mid="none" marker-start="none" fill="#FF007F" d="M1379.27,290.922l-0.184,0.017
		l-532.455,39.962c0,0-154.84,12.774-214.972,21.043c-39.856,5.48-84.991,16.917-110.899,24l-5.514,1.511
		c-9.919,2.76-15.861,4.567-15.861,4.567c-63.342,22.205-152.445,75.046-173.633,89.439c-19.492,13.241-69.908,50.359-69.908,50.359
		l-0.299,0.101c-9.112,24.571-142.745,155.337-68.679,118.09c-32.923,41.493,7.642,23.312,65.605,25.247
		c0.042-0.063,0.092-0.121,0.133-0.183c0.112-0.167,0.214-0.337,0.333-0.498c0.02-0.029,0.045-0.056,0.065-0.084
		c0.106-0.143,0.222-0.276,0.334-0.415c0.123-0.155,0.25-0.314,0.381-0.465c0.148-0.172,0.308-0.349,0.465-0.516
		c0.207-0.218,0.41-0.438,0.632-0.646c0.058-0.057,0.122-0.111,0.182-0.166c0.173-0.159,0.352-0.313,0.531-0.465
		c0.244-0.206,0.491-0.406,0.747-0.6c4.136-3.101,12.113-7.974,14.369-9.101c0.562-0.28,1.146-0.398,1.709-0.398
		c1.691,0,3.332,1.047,4.601,1.893c1.691,1.128,11.169,7.427,12.672,8.837c1.503,1.408,1.977,3.852,1.977,3.852
		s-3.297,7.607-1.512,13.339c1.786,5.73,6.296,6.195,6.296,6.195s2.552,11.377,5.747,21.808c3.194,10.429,7.507,19.349,7.507,19.349
		l-0.017,0.183c0.008-0.008,0.198-0.183,0.198-0.183s81.187,5.257,145.83,0.749l18.785-1.495c0,0,71.665-5.931,95.086-8.836
		c0.809-0.101,1.591-0.21,2.375-0.317c0.146-0.02,0.287-0.029,0.432-0.049c0.636-0.087,1.258-0.175,1.876-0.266
		c0.292-0.044,0.56-0.09,0.847-0.134c1.21-0.182,2.406-0.374,3.556-0.564c0.546-0.09,1.06-0.176,1.593-0.265
		c0.134-0.022,0.251-0.043,0.383-0.067c1.512-0.258,2.987-0.51,4.4-0.763c0.582-0.105,1.114-0.196,1.679-0.301
		c0.951-0.172,1.85-0.336,2.757-0.498c1.179-0.211,2.327-0.414,3.438-0.597c0.3-0.05,0.617-0.104,0.913-0.15
		c0.023-0.003,0.043-0.013,0.066-0.016c0.88-0.141,1.736-0.266,2.574-0.382c0.258-0.037,0.526-0.068,0.78-0.101
		c0.46-0.061,0.916-0.115,1.364-0.167c0.504-0.057,1.002-0.105,1.494-0.148c0.479-0.042,0.947-0.088,1.412-0.116
		c0.045-0.003,0.088,0.004,0.133,0c0.448-0.027,0.894-0.053,1.329-0.066c0.463-0.014,0.928-0.021,1.378-0.017
		c0.368,0.003,0.737,0.019,1.097,0.033c0.358,0.015,0.712,0.039,1.063,0.065c0.289,0.024,0.576,0.051,0.863,0.084
		c0.295,0.034,0.59,0.072,0.88,0.118c0.043,0.006,0.09,0.008,0.134,0.017c0.061,0.008,0.12,0.021,0.181,0.03
		c0.313,0.054,0.623,0.102,0.93,0.167c0.023,0.005,0.043,0.012,0.066,0.017c0.381,0.082,0.742,0.181,1.115,0.281
		c0.396,0.109,0.791,0.23,1.177,0.367c0.28,0.097,0.557,0.203,0.831,0.314c0.218,0.088,0.433,0.186,0.648,0.282
		c0.005,0.003,0.012-0.002,0.017,0c0.257,0.117,0.512,0.236,0.763,0.367c0.346,0.175,0.677,0.363,1.014,0.562
		c0.028,0.017,0.054,0.034,0.083,0.051c0.265,0.161,0.537,0.338,0.796,0.516c0.09,0.061,0.176,0.118,0.267,0.183
		c0.198,0.14,0.399,0.282,0.596,0.432c0.091,0.07,0.175,0.144,0.267,0.215c0.106,0.086,0.21,0.163,0.315,0.25
		c0.301,0.247,0.602,0.508,0.897,0.779c0.34,0.313,0.68,0.635,1.013,0.98c0.08,0.082,0.163,0.173,0.251,0.284
		c0.004,0.005,0.011,0.009,0.016,0.015c0.083,0.106,0.175,0.236,0.265,0.367c0.005,0.007,0.012,0.009,0.018,0.017
		c0.186,0.27,0.368,0.581,0.581,0.946c0.015,0.027,0.034,0.038,0.05,0.066c0.223,0.385,0.468,0.822,0.713,1.296
		c0.003,0.004-0.001,0.011,0,0.017c0.218,0.422,0.434,0.862,0.666,1.345c0.033,0.07,0.065,0.128,0.1,0.198
		c0.226,0.472,0.447,0.962,0.68,1.479c0.043,0.097,0.089,0.183,0.134,0.282c0.225,0.504,0.452,1.024,0.68,1.561
		c0.052,0.119,0.1,0.229,0.15,0.35c0.222,0.527,0.443,1.062,0.665,1.609c0.27,0.673,0.532,1.351,0.796,2.044l0.831-0.217
		c2.65-1.942,4.999-9.947,5-9.947c8.118-18.771,15.114-43.111,39.097-92.596c27.644-47.137,58.569-50.778,75.158-53.217
		c16.847-2.476,45.117-15.308,69.144,27.805c17.552,46.549,15.795,67.66,15.795,77.432c0,9.229-8.902,20.611-9.899,21.856
		c3.372-0.771,340.477-77.835,355.786-81.333c15.382-3.518,25.484-19.787,30.76-35.612c5.272-15.823,5.254-15.639,9.915-29.214
		c1.202-5.542,8.197-11.087,19.533-12.541c11.595-1.485,88.787-16.27,98.458-17.588c9.669-1.318,9.677-0.439,10.994,5.714
		c1.321,6.152,2.41,33.414,3.289,43.084c0.22,2.416-4.169,10.979-4.169,10.979l15.131-3.008h0.017
		c0.603-2.545,1.166-4.863,1.545-6.443c1.319-5.495,5.502-6.37,8.139-6.811c1.239-0.206,4.177-0.84,7.309-1.578
		c0.105-0.022,0.211-0.056,0.315-0.082c2.813-15.387,5.137-30.876,8.205-46.207c0.629-3.571,2.292-39.13,2.292-39.778
		c0-0.647,1.999-32.204,1.578-47.401c-0.423-15.201-4.037-63.813-4.037-76.188s-4.467-60.15-4.467-61.869
		C1380.798,293.994,1379.949,291.597,1379.27,290.922z M17.635,597.343l-0.113,3.484c0,0-10.084,0.234-12.659,0.402
		c-2.193,0.144-2.176,2.176-2.176,2.176l-0.93,14.301l18.918,15.447l4.501,5.065l6.644-2.309c6.813,1.643,16.379,3.749,26.741,5.365
		C42.134,632.95,28.094,617.538,17.635,597.343z M18.034,648.135c0.142,0.14,0.285,0.275,0.432,0.398
		C18.321,648.41,18.174,648.272,18.034,648.135z M25.375,651.656l0.033,0.133l19.732,38.367c0,0-0.061,0-0.067,0l0.616,0.099
		c2.239,0.684,47.412,14.353,94.688,21.625c48.485,7.459,111.88,13.67,111.88,13.67l0.298-1.278
		c-0.042-0.732-0.092-1.483-0.131-2.209c-0.232-4.095-0.448-8.052-0.649-11.876c-0.031-0.602-0.052-1.157-0.083-1.743
		c-0.075-1.456-0.162-2.889-0.231-4.286c-0.15-2.944-0.26-5.404-0.383-7.938c-0.26-5.391-0.468-9.765-0.63-13.389l-0.033,0.101
		c-48.069-3.122-85.31-8.108-136.345-14.333c-25.937-3.163-50.146-7.436-67.931-11.527C35.125,654.527,28.825,652.77,25.375,651.656
		z M255.743,770.062c0.43,4.872,0.865,9.473,1.33,13.571h0.017C256.624,779.521,256.175,774.942,255.743,770.062z"/>
	
		<linearGradient id="path5193_1_" gradientUnits="userSpaceOnUse" x1="400.5146" y1="691.3516" x2="400.5191" y2="691.2079" gradientTransform="matrix(800.6827 0 0 -397.358 -320012.4375 274735.9375)">
		<stop  offset="0" style="stop-color:#FFFFFF"/>
		<stop  offset="1" style="stop-color:#E4E4DC"/>
	</linearGradient>
	<path id="path5193" marker-end="none" marker-mid="none" marker-start="none" fill="url(#path5193_1_)" d="M541.77,22.817
		c-49.788,0.091-95.595,1.517-133.869,4.799C234.872,42.482,199.3,61.754,193.178,64.822c-6.122,3.068-28.701,13.818-46.772,38.268
		l-6.842,2.84l0.399,4.351c0,0-93.208,170.616-95.088,173.998c-1.879,3.382-7.52,8.647-8.271,11.277
		c-0.727,2.545-4.256,23.251-5.166,30.046l0.399,0.05l-0.499,0.714c0.024-0.195,0.069-0.536,0.1-0.764l-0.1-0.017v0.034h-6.511
		h-5.282h-1.977c-1.425-0.239-2.062,0.688-1.727,3.038l0.299,19.882h14.084c0,0-2.55,4.992,2.242,9.782
		c0.27,0.27-1.541,19.267-2.607,30.113C46.44,363.102,68,346.25,91.181,342.359c12.069-4.251,27.298-7.715,44.827-7.557
		c17.512,0.158,37.295,3.929,58.449,14.068l0.648,0.334c41.944,18.553,69.018,82.388,62.434,156.456
		c-0.49,5.515-1.16,10.937-1.994,16.262l0.299-0.101c0,0,21.613-15.896,42.022-30.61c9.244-6.652,18.475-13.331,27.886-19.749
		c21.188-14.393,110.292-67.234,173.633-89.439c0,0,5.942-1.807,15.861-4.567l5.514-1.511c21.052-5.754,54.787-14.39,88.079-20.364
		c2.56-0.459,5.124-0.903,7.673-1.328c5.098-0.852,10.166-1.624,15.147-2.309c60.132-8.269,214.972-21.043,214.972-21.043
		l318.746-23.917l213.709-16.046l0.184-0.017l0.697-0.913c1.542-2.291,3.335-7.279,1.844-15.563
		c-1.412-7.844-4.693-10.23-5.746-10.812c-0.699-4.722-14.736-98.254-35.163-136.627l-7.905-11.792
		c-0.469-0.536-0.91-1.025-1.229-1.378c-7.311-8.113-25.11-17.161-51.688-28.286c-33.821-14.155-108.16-25.196-139.782-29.232
		C1113.879,52.947,781.658,22.377,541.77,22.817z M186.866,640.012c-1.424,0.76-2.857,1.471-4.303,2.127l0.084,0.117
		c-13.293,5.737-25.766,9.466-37.336,11.676c-0.019,0.004-0.033,0.014-0.05,0.017l-0.016-0.017c-0.085,0.015-0.166,0.033-0.25,0.05
		l0.183,0.1c11.913,1.451,23.622,2.896,35.278,4.268l0.315-0.863C180.77,657.485,183.871,647.112,186.866,640.012z M18.034,648.135
		c0.14,0.138,0.287,0.275,0.432,0.398C18.319,648.41,18.176,648.274,18.034,648.135z M138.399,655.076
		c-0.742,0.105-1.475,0.19-2.208,0.284l0.066,0.017C136.969,655.285,137.68,655.182,138.399,655.076z M133.849,669.61
		c0,0,8.083,30.771,19.582,31.391c11.5,0.621,17.713-9.645,21.443-25.494L133.849,669.61z"/>
	<path id="path8026" marker-end="none" marker-mid="none" marker-start="none" fill="#5D536C" d="M718.052,130.079l72.748,1.352
		c9.304,0.123,10.556,6.513,11.691,10.175l26.267,147.006l-81.057,3.238"/>
	<path id="path3448" marker-end="none" marker-mid="none" marker-start="none" fill="#6D6F84" d="M640.328,134.38l-0.62,5.424
		c7.792,0.193,6.46,5.618,5.771,8.994l-16.958,89.374l-6.08,54.602l115.682-3.985l-5.438-31.041
		c-1.453-3.517-7.443-6.172-13.213-6.172c-6.015,0-44.713-0.749-44.713-0.749l24.615-110.683l12.275,0.232l-0.998-5.597
		L640.328,134.38z"/>
	<path id="path3230" marker-end="none" marker-mid="none" marker-start="none" fill="none" d="M835.22,294.104l-27.105-153.735
		c-1.03-4.76-4.365-16.73-18.602-15.944l-217.979-2.192c-9.088,0.2-14.431-0.565-17.665,10.27"/>
	<path id="path3545" marker-end="none" marker-mid="none" marker-start="none" fill="#333333" d="M133.916,334.802
		c-16.654,0.121-31.147,3.475-42.735,7.557c5.121-0.858,10.319-1.102,15.563-0.646c52.949,4.59,90.314,76.932,83.41,161.458
		c-0.109,1.319-0.22,2.624-0.349,3.935c-0.017,0.167-0.033,0.334-0.049,0.498c-0.114,1.145-0.237,2.287-0.365,3.422
		c-0.037,0.325-0.079,0.656-0.117,0.981c-0.115,0.971-0.24,1.94-0.365,2.905c-0.003,0.023,0.003,0.046,0,0.067
		c-0.148,1.141-0.318,2.273-0.482,3.403c-0.019,0.128-0.032,0.257-0.05,0.383c-0.093,0.636-0.185,1.278-0.282,1.911
		c-0.038,0.243-0.078,0.486-0.117,0.73c-0.153,0.973-0.318,1.939-0.481,2.906c-0.035,0.209-0.063,0.422-0.1,0.633
		c-0.081,0.474-0.163,0.953-0.248,1.426c-0.168,0.935-0.338,1.863-0.516,2.79c-0.062,0.321-0.12,0.646-0.183,0.964
		c-0.079,0.407-0.169,0.809-0.249,1.214c-0.168,0.836-0.338,1.676-0.515,2.507c-0.259,1.219-0.522,2.433-0.798,3.639
		c-0.002,0.011-0.013,0.021-0.017,0.033c-15.14,66.035-56.379,112.959-101.099,110.583c-0.647-0.025-1.333-0.072-2.043-0.134
		c-0.75-0.065-1.499-0.141-2.242-0.232c-0.078-0.01-0.155-0.022-0.232-0.032c-0.82-0.105-1.632-0.229-2.442-0.365
		c-0.683-0.116-1.365-0.243-2.042-0.382c-0.395-0.081-0.787-0.161-1.179-0.25c-0.399-0.09-0.798-0.185-1.196-0.281
		c-0.434-0.107-0.864-0.234-1.296-0.35c-0.209-0.057-0.422-0.107-0.631-0.167c-0.599-0.167-1.199-0.346-1.793-0.53
		c-0.071-0.023-0.144-0.044-0.216-0.066c-0.679-0.216-1.354-0.444-2.027-0.683c-0.679-0.24-1.354-0.483-2.026-0.747
		c16.659,8.434,44.143,16.987,80.837,10.05l0.016,0.017c0.017-0.003,0.032-0.013,0.05-0.017c11.571-2.21,24.043-5.938,37.336-11.676
		l-0.084-0.117c38.159-17.334,69.132-70.748,74.976-136.479c6.583-74.068-20.49-137.903-62.434-156.456l-0.648-0.334
		c-21.154-10.139-40.937-13.91-58.449-14.068C135.31,334.798,134.608,334.798,133.916,334.802z"/>
	<path id="path7130" marker-end="none" marker-mid="none" marker-start="none" fill="#595959" d="M190.16,503.163
		c-6.906,84.526-55.482,149.399-108.432,144.808c-52.95-4.59-90.32-76.918-83.416-161.443c3.104-37.996,14.627-72.019,31.183-97.547
		c20.276-31.264,48.099-49.787,77.247-47.26C159.691,346.312,197.063,418.638,190.16,503.163z"/>
	<path id="path3589" marker-end="none" marker-mid="none" marker-start="none" fill="#CCCCCC" d="M-16.912,605.216
		c-1.389,0.053-6.962,0.884-7.059,10.979c-0.109,11.475,5.848,58.219,5.913,58.731c0.007-0.016,0.01-0.033,0.017-0.051
		c4.285-9.778,7.59-10.215,7.59-10.215l0.067,0.051c0.055,1.416,0.109,2.938,0.166,4.4l0.017-0.017
		c-0.694-17.876-1.304-33.188-1.412-34.911c-0.31-4.961,1.904-12.719,8.703-14.917v-0.015c0,0,0.633-0.167,0.698-0.183v-0.017
		c0,0-2.974-1.423-5.282-7.027c-2.309-5.603-3.515-6.81-9.119-6.81C-16.613,605.216-16.713,605.21-16.912,605.216z"/>
	<path id="path7040" marker-end="none" marker-mid="none" marker-start="none" fill="#CCCCCC" d="M45.689,690.255l-0.626-0.102
		c0,0-10.978,0.271-15.95,5.865s-12.756,26.743-12.756,33.268c0,6.528,10.814,20.331,11.511,23.619
		c0.97,4.583,142.574,36.965,230.534,40.708c-2.363-14.914-4.38-43.735-5.847-69.359l-0.298,1.296c0,0-63.395-6.211-111.88-13.67
		C93.101,704.607,47.928,690.938,45.689,690.255z"/>
	<path id="path3289" marker-end="none" marker-mid="none" marker-start="none" fill="#333333" d="M1294.612,532.42
		c-24.437,4.503-51.856,9.572-58.413,10.412c-11.336,1.454-18.331,6.999-19.533,12.541c-4.661,13.575-4.643,13.391-9.915,29.214
		c-5.275,15.825-15.378,32.095-30.76,35.612c-0.041,0.008-0.834,0.18-0.914,0.198l-0.682,2.957c-0.645,2.24-1.245,2.939-3.372,3.536
		l-23.9,5.547c-3.96,58.099,13.666,101.351,46.455,105.021c0.436,0.63,29.971,6.629,52.95,4.252
		c29.691,1.846,58.37-48.107,64.013-111.497C1314.129,589.899,1307.524,553.825,1294.612,532.42z"/>
	<path id="path3185" marker-end="none" marker-mid="none" marker-start="none" fill="#575757" d="M1294.612,532.42
		c-24.437,4.503-51.856,9.572-58.413,10.412c-6.227,0.799-11.134,2.842-14.501,5.433c-9.536,19.669-16.492,45.227-18.983,73.41
		l-0.059,1.938c-2.117,23.772-0.394,45.995,3.778,64.683c0.142,0.635,0.283,1.267,0.432,1.894c0.033,0.142,0.065,0.288,0.101,0.432
		c7.268,29.808,21.59,49.812,39.628,50.94c12.149,0.759,24.124-7.153,34.449-21.127c0.396-0.537,0.803-1.089,1.194-1.645
		c0.278-0.393,0.555-0.795,0.832-1.197c0.111-0.162,0.22-0.33,0.331-0.498c0.387-0.57,0.766-1.153,1.146-1.742
		c0.267-0.411,0.535-0.829,0.799-1.246c0.112-0.184,0.234-0.365,0.348-0.548c0.259-0.417,0.509-0.839,0.764-1.264
		c0.114-0.191,0.235-0.387,0.35-0.58c11.967-20.254,20.853-49.124,23.734-81.501C1314.129,589.899,1307.524,553.825,1294.612,532.42
		z"/>
	<path id="path3183" marker-end="none" marker-mid="none" marker-start="none" fill="#FFFFFF" d="M1294.392,630.611
		c-0.597,40.76-17.694,72.84-38.187,71.653c-20.493-1.186-36.621-35.19-36.026-75.95c0.596-40.761,17.692-72.839,38.186-71.653
		C1278.857,555.846,1294.987,589.852,1294.392,630.611z"/>
	<path id="path3871" marker-end="none" marker-mid="none" marker-start="none" fill="#B3B3B3" d="M1292.531,630.216
		c-0.54,39.344-16.052,70.31-34.643,69.164c-18.595-1.145-33.228-33.968-32.687-73.311c0.542-39.346,16.053-70.312,34.645-69.166
		C1278.439,558.048,1293.072,590.871,1292.531,630.216z"/>
	<path id="path4167" marker-end="none" marker-mid="none" marker-start="none" fill="#333333" d="M1340.271,524.729
		c-1.38,0.007-3.197,0.186-5.614,0.516c-4.165,0.568-21.468,3.754-40.028,7.176c7.555,12.525,12.943,30.071,15.396,50.556
		l34.746,2.045c0,0,4.389-8.562,4.169-10.979c-0.879-9.67-1.968-36.932-3.289-43.084
		C1344.663,526.343,1344.411,524.708,1340.271,524.729z"/>
	<path id="path2393" marker-end="none" marker-mid="none" marker-start="none" fill="#CCCCCC" d="M1378.738,558.545
		c-0.098,0.57-0.199,1.14-0.301,1.71c1.749,0.54,5.668,1.735,6.546,1.91c1.099,0.22,4.612,1.542,1.096,2.642
		c-1.809,0.565-5.414,1.478-8.853,2.292c-0.104,0.026-0.21,0.06-0.315,0.082c-3.132,0.738-6.069,1.372-7.309,1.578
		c-2.637,0.44-6.819,1.315-8.139,6.811c-0.379,1.58-0.942,3.898-1.545,6.443c-1.489,6.305-3.228,14.166-3.073,16.826
		c0.221,3.737,4.84,13.88,5.5,15.198c0.657,1.317,1.76,3.522,7.474,2.425c5.714-1.102,27.03-5.287,29.446-5.947
		c2.418-0.658,2.937-1.579,5.134-5.315c2.198-3.735,5.797-10.541,5.863-15.962c0.059-4.7-4.401-16.74-4.401-16.74l-0.085-0.018
		l-0.164-0.364c-0.354,0.713-0.766,1.545-0.766,1.545c-4.784-0.829-9.447-4.855-9.963-7.875c0,0,0.551-1.093,1.393-2.74
		C1390.222,560.048,1381.55,558.868,1378.738,558.545z"/>
	<path id="path2397" fill="#76705A" d="M1302.295,355.184c0,0,0.162,4.733,1.443,5.452c2.278,1.282,4.443,0.521,7.981,0.232
		c5.045-0.409,38.256-2.707,41.232-2.95c2.979-0.243,4.573-2.085,4.555-6.438l-0.232-0.229L1302.295,355.184z"/>
	<path id="path2403" marker-end="none" marker-mid="none" marker-start="none" fill="#76705A" d="M826.36,700.097l0.471,4.257
		c0.262,1.757,1.869,2.198,3.427,1.64l170.23-39.526l86.698-20.129l83.836-19.451c2.126-0.599,2.73-1.292,3.376-3.532l0.707-3.067
		L826.36,700.097z"/>
	<path id="path3194" fill="#B3B3B3" d="M1386.112,512.288c-0.267,4.294-0.512,7.642-0.681,8.604
		c-0.193,0.962-0.378,1.928-0.564,2.891c4.604,0.611,9.831,0.923,14.266,2.724c4.364,2.23,7.048,5.55,7.625,9.617
		c0.576,4.067-0.69,8.688-2.059,11.11c-4.353,7.701-9.815,18.552-9.815,18.552c0.516,3.02,5.179,7.046,9.963,7.875
		c0,0,6.61-13.43,10.548-20.396c2.952-5.225,4.554-12.146,3.521-19.435c-1.034-7.285-5.795-15.208-14.799-18.236
		C1399.394,514.005,1392.22,512.404,1386.112,512.288z"/>
	<path id="path8112" marker-end="none" marker-mid="none" marker-start="none" fill="#B4B4B4" d="M855.666,312.829
		c0,0-154.839,12.776-214.971,21.043c-39.857,5.481-84.991,16.92-110.9,24l-5.513,1.512c-9.919,2.761-15.863,4.567-15.863,4.567
		c-63.341,22.205-152.443,75.048-173.632,89.44c-19.492,13.241-69.907,50.357-69.907,50.359l-0.299,0.1
		c-1.115,3.005-4.104,7.603-8.339,13.287c-0.218,1.6-0.45,3.199-0.697,4.783l0.299-0.101c0,0,21.613-15.896,42.022-30.61
		c9.244-6.652,18.475-13.331,27.886-19.749c21.188-14.393,110.292-67.234,173.633-89.439c0,0,5.942-1.807,15.861-4.567l5.514-1.511
		c21.052-5.754,54.787-14.39,88.079-20.364c2.56-0.459,5.124-0.903,7.673-1.328c5.098-0.852,10.166-1.624,15.147-2.309
		c60.132-8.269,214.972-21.043,214.972-21.043l318.746-23.917l213.709-16.046l0.184-0.017l0.697-0.913
		c1.391-2.066,2.987-6.334,2.189-13.236L855.666,312.829z"/>
	<path id="path3202" marker-end="none" marker-mid="none" marker-start="none" fill="none" d="M850.103,410.137l4.517,134.167
		c0,0-1.378,101.512-1.858,112.941c-0.517,12.495-1.63,40.187-8.239,38.533 M835.119,294.016
		c3.176-0.543,10.419,6.401,11.528,13.508c1.038,6.647,3.987,17.805-1.063,23.652l4.342,68.434"/>
	<path id="path3206" marker-end="none" marker-mid="none" marker-start="none" fill="none" d="M482.841,725.71l0.133-39.497"/>
	<path id="path3257" marker-end="none" marker-mid="none" marker-start="none" fill="#918A6F" d="M520.381,377.499l1.837-17.895
		l-19.999-2.374l-2.372,18.53L520.381,377.499z"/>
	<path id="path3208" marker-end="none" marker-mid="none" marker-start="none" fill="none" d="M561.04,104.514l-51.769,203.563
		l-10.565,74.061c-7.281,51.041-13.61,141.187-15.865,182.528c-0.492,9.007,0,94.308,0,94.308l13.616,0.377l-0.451,26.664
		l-13.559,0.903"/>
	<path id="path3242" marker-end="none" marker-mid="none" marker-start="none" fill="#5D536C" d="M846.432,122.97
		c-7.045,0.259-10.698,4.245-7.773,18.138c0,0,9.475,43.598,12.856,62.766c3.382,19.166,11.659,74.792,11.659,74.792
		c1.372,6.633,2.664,16.302,15.778,15.03l94.522-5.265c11.307-0.655,11.986-6.998,11.095-16.908
		c-7.764-43.405-15.083-86.694-25.561-130.78c-2.376-7.112-2.268-15.781-15.413-16.161l-93.959-1.511
		C848.503,122.973,847.438,122.933,846.432,122.97z M994.984,124.747c-13.625,0.06-7.974,19.184-7.974,19.184
		c-0.375,0,9.951,41.912,11.08,49.43c1.126,7.515,9.218,60.505,12.223,78.543c3.006,18.04,17.095,13.331,22.356,12.956
		c5.263-0.376,67.83-3.755,76.285-4.319c8.457-0.563,7.334-12.589,5.83-22.173c-1.504-9.583-18.031-100.719-21.227-117.443
		c-3.193-16.724-17.482-14.649-20.113-14.649s-63.328-0.947-77.797-1.512C995.422,124.755,995.2,124.747,994.984,124.747z
		 M1126.163,128.517c-11.971,0.057-7.01,18.005-7.01,18.005c-0.329,0,7.248,37.867,8.238,44.928
		c0.992,7.059,10.359,56.832,12.989,73.778c2.454,15.721,15.025,12.526,19.648,12.174c4.622-0.353,58.26-3.868,65.706-4.07
		c10.379-0.285,8.417-11.541,6.428-20.81c-1.911-8.896-16.898-93.707-19.849-109.389c-2.808-14.911-15.343-13.768-17.655-13.768
		c-2.312,0-55.203-0.318-67.914-0.848C1126.544,128.509,1126.353,128.516,1126.163,128.517z"/>
	<path id="path3277" marker-end="none" marker-mid="none" marker-start="none" fill="#333333" d="M1348.609,569.672
		c0.116,1.684,0.222,3.161,0.331,4.37C1348.834,572.857,1348.726,571.338,1348.609,569.672z M1359.902,582.013l-15.131,3.008
		l-34.746-2.043c0.443,3.704,0.787,7.508,1.029,11.394c0.114,0.045,9.337,3.723,16.411,6.544l4.352-1.679l25.944,3.771l0.031-0.133
		c-0.516-1.604-0.887-3.048-0.947-4.036c-0.154-2.662,1.584-10.523,3.073-16.826H1359.902z"/>
	<path id="path3293" marker-end="none" marker-mid="none" marker-start="none" fill="#484537" d="M1147.123,632.404l-17.455,3.854
		l17.058,3.671c0.089-2.422,0.23-4.878,0.397-7.356C1147.126,632.516,1147.119,632.461,1147.123,632.404z"/>
	<path id="path3299" marker-end="none" marker-mid="none" marker-start="none" fill="#333333" d="M770.313,570.736
		c-9.567-0.023-18.302,2.698-25.147,3.703c-13.845,2.034-37.68,4.917-61.254,33.218c11.901-7.068,24.643-10.934,37.65-10.929
		c2.428,0.002,4.869,0.14,7.311,0.417c45.241,5.109,77.925,56.48,81.301,121.213l3.604,4.5c1.052,0.498,1.601,1.861,3.971,0.051
		c2.594-1.972,6.311-4.905,6.311-5.597c0-1.027-4.856-14.424-5.197-15.364l1.162-0.167c0,0,10.081-12.334,10.081-22.105
		s1.757-30.883-15.795-77.432C800.044,576.647,784.292,570.769,770.313,570.736z"/>
	<path id="path3873" marker-end="none" marker-mid="none" marker-start="none" fill="#FFFFFF" d="M1258.206,578.36
		c-12.397,0.55-24.097,21.014-26.458,46.77c-2.438,26.591,6,48.805,18.834,49.579c3.642,0.22,5.768-0.859,10.596-4.234
		c4.831-3.376,22.522-20.409,22.522-44.795c0-31.415-11.697-39.931-14.337-42.747c-2.639-2.819-5.619-4.296-9.945-4.556
		C1259.016,578.353,1258.604,578.342,1258.206,578.36z"/>
	<path id="path3880" marker-end="none" marker-mid="none" marker-start="none" fill="#878787" d="M1257.574,568.561
		c-13.86-0.119-27.094,25.038-29.73,56.82c-2.679,32.284,6.595,59.252,20.694,60.189c9.368,0.626,18.524-10.389,24.399-27.319
		l0.017-0.385c-4.668,6.656-9.565,11.063-11.776,12.608c-4.828,3.375-6.954,4.454-10.596,4.234
		c-12.834-0.774-21.272-22.988-18.834-49.579c2.361-25.756,14.061-46.22,26.458-46.77c0.397-0.019,0.81-0.008,1.212,0.017
		c4.326,0.26,7.311,1.733,9.949,4.55c1.132,1.209,3.932,3.477,6.759,8.14v-0.083c-3.617-13.198-9.997-21.864-17.889-22.391
		C1258.018,568.579,1257.795,568.562,1257.574,568.561z"/>
	<path id="path3885" marker-end="none" marker-mid="none" marker-start="none" fill="#5D536C" d="M640.927,129.115l-0.599,5.265
		l70.323,0.399l27.474,154.004l-115.702,3.874l-0.55,3.812l116.815-3.953l1.295,0.099l3.024-0.099l-30.179-162.122L640.927,129.115z
		"/>
	<path id="path3207" marker-end="none" marker-mid="none" marker-start="none" fill="#D5E5FF" d="M719.947,140.455l48.199,1.199
		c2.295,0.302,5.358-1.154,4.321,6.765l-18.792,105.419c-0.978,3.87-3.428,5.919-6.388,5.823l-5.438-0.319L719.947,140.455z"/>
	<path id="path2426" marker-end="none" marker-mid="none" marker-start="none" fill="#FFFFFF" d="M505.955,99.009
		c0,0,2.267,4.421,8.274,4.421c6.007,0,7.48-4.421,7.48-4.421s232.571,4.081,408.02,8.614c175.45,4.534,408.365,7.708,408.365,7.708
		c1.428,1.058,0.604,2.115,0,3.173l-389.776-6.346l-434.77-8.161l-352.259,3.627c-7.516-0.03-22.757-0.592-23.98,0.234
		c-0.175-1.465-0.047-4.314-0.047-4.314L505.955,99.009z"/>
	<path id="path8022" marker-end="none" marker-mid="none" marker-start="none" fill="#6D6F84" d="M718.906,134.613l1.08,5.896
		l0.033-0.049l48.133,1.195c2.295,0.302,5.355-1.159,4.318,6.76l-18.802,105.418c-0.977,3.87-3.419,5.923-6.377,5.828l-5.443-0.318
		l5.227,28.893l76.542-3.813l-9.542-53.146c-5.5,0.974-10.021,2.977-13.352,8.237c-2.168,6.334-5.89,15.813-5.898,15.847
		c-0.035,0.146-1.032,0.098-3.071,0c-2.784-0.102-5.346-0.26-4.549-5.249l15.063-84.574l-3.571-19.898
		c-1.114-3.566-2.352-9.796-11.459-9.915L718.906,134.613z"/>
	<path id="path3229" marker-end="none" marker-mid="none" marker-start="none" fill="#5D536C" d="M539.391,299.207
		c-13.442,0.351-18.793-14.912-14.345-28.065L557.25,139.23c0.644-1.699,1.839-10.449,13.038-10.38l63.97,0.281l-19.374,167.875
		L539.391,299.207z"/>
	<path id="path3233" marker-end="none" marker-mid="none" marker-start="none" fill="#D5E5FF" d="M564.608,138.167
		c-0.716,0.972-0.989,2.672-1.247,3.987l-28.136,113.69l19.797,1.395c2.173-4.434,5.811-9.084,11.743-9.069
		c0.192,0,0.386,0.007,0.581,0.017c10.098,0.531,48.5,1.593,48.5,1.593l0.032,0.93l12.225-111.115l-0.165,0.167L564.608,138.167z
		 M639.765,139.862l-0.083,0.132l-11.161,98.177l16.958-89.374C646.168,145.422,647.557,140.054,639.765,139.862z"/>
	<path id="path3241" marker-end="none" marker-mid="none" marker-start="none" fill="#6D6F84" d="M566.767,248.17
		c-5.933-0.015-9.57,4.635-11.743,9.069l-19.797-1.395l-4.551,18.385c-2.233,11.526-0.593,19.621,9.534,20.197l70.821-1.216
		l4.849-42.5l-0.032-0.93c0,0-38.401-1.062-48.5-1.593C567.152,248.177,566.958,248.17,566.767,248.17z"/>
	<path id="path3245" marker-end="none" marker-mid="none" marker-start="none" fill="#6D6F84" d="M570.885,133.915
		c-2.545,0.115-4.758,1.4-6.28,4.252h0.086l63.247,1.595l0.165-0.167l0.599-5.415C609.432,134.248,590.157,133.783,570.885,133.915z
		"/>
	<path id="path3249" marker-end="none" marker-mid="none" marker-start="none" fill="#D5E5FF" d="M813.962,231.71
		c0,0-10.593,0.068-13.238,7.801c-2.168,6.332-5.89,15.818-5.898,15.851c-0.035,0.146-1.039,0.095-3.077-0.003
		c-2.784-0.1-5.331-0.26-4.537-5.249l15.058-84.571L813.962,231.71z"/>
	<path id="rect3264" marker-end="none" marker-mid="none" marker-start="none" fill="#5D536C" d="M568.006,309.995l-3.43-25.272
		c-1.517-11.982,5.676-22.693,16.126-24.017l15.79-1.999c10.454-1.323,20.087,7.257,21.604,19.24L624,324.592
		c1.517,11.982-5.676,22.695-16.126,24.017l-15.79,1.998c-10.451,1.323-20.085-7.257-21.603-19.239l-1.803-14.245l-0.212-1.665"/>
	<path id="path3267" marker-end="none" marker-mid="none" marker-start="none" fill="#C6C6C6" d="M571.292,314.511
		c0.088,0.753,0.043,0.773,0.135,1.525 M571.427,316.036c0.856,7.028,1.908,14.017,3.646,20.871
		c3.314,7.542,12.453,9.382,19.622,8.85c7.345-0.925,16.598-0.253,21.243-7.444c5.016-7.138,2.757-16.555,1.47-24.645
		c-1.926-13.864-2.549-28.056-6.17-41.594c-3.027-6.167-9.864-10.317-16.372-9.161c-7.571,2.062-16.931-0.066-22.839,6.257
		c-5.253,5.341-5.38,13.773-3.78,20.902c0.885,5.547,1.724,18.815,2.343,18.815"/>
	<path id="path3427" marker-end="none" marker-mid="none" marker-start="none" fill="#575757" d="M721.562,596.729
		c-13.008-0.005-25.75,3.86-37.65,10.929c-4.672,5.606-9.331,12.203-13.904,19.999c-23.983,49.484-30.979,73.825-39.097,92.596
		c-0.001,0-2.35,8.005-5,9.947l-0.831,0.217c2.246,5.863,4.203,12.268,4.203,15.363c0,6.014-2.257,23.302-14.285,29.316
		c-0.285,0.143-0.625,0.298-0.978,0.448l1.178,2.591c5.911,60.23,37.585,106.938,80.604,111.796
		c53.392,6.029,104.132-54.672,113.258-135.48s-26.797-151.276-80.188-157.305C726.432,596.868,723.99,596.73,721.562,596.729z
		 M599.752,712.662c-0.395,0.036-0.792,0.069-1.195,0.114C598.963,712.731,599.356,712.698,599.752,712.662z M610.831,713.291
		c0.243,0.07,0.475,0.154,0.714,0.234C611.306,713.445,611.074,713.361,610.831,713.291z M614.236,714.67
		c0.311,0.164,0.625,0.332,0.93,0.516C614.863,715.002,614.546,714.834,614.236,714.67z M615.166,715.186
		c0.347,0.21,0.69,0.427,1.03,0.665C615.854,715.612,615.514,715.397,615.166,715.186z M617.475,716.83
		c0.28,0.232,0.555,0.477,0.83,0.729C618.03,717.307,617.754,717.062,617.475,716.83z M618.305,717.56
		c0.34,0.313,0.678,0.635,1.013,0.98C618.986,718.196,618.643,717.873,618.305,717.56z"/>
	<path id="path6895" marker-end="none" marker-mid="none" marker-start="none" fill="#B2B2B2" fill-opacity="0.5359" d="
		M625.165,764.017c-0.113,0.236-0.232,0.465-0.348,0.698C624.933,764.483,625.054,764.251,625.165,764.017z"/>
	<path id="path6893" marker-end="none" marker-mid="none" marker-start="none" fill="#333333" d="M614.021,775.544
		c-8.76,3.682-37.97,9.075-72.001,13.751c7.154,36.833,24.424,66.983,48.265,82.549v0.033
		c19.449,13.196,42.946,17.967,62.601,19.284c16.501,1.103,39.792-0.079,51.604-0.833c-2.882,0.061-5.78-0.07-8.687-0.397
		c-43.019-4.857-74.693-51.565-80.604-111.796L614.021,775.544z"/>
	<path id="path3432" marker-end="none" marker-mid="none" marker-start="none" fill="#B2B2B2" fill-opacity="0.5359" d="
		M712.03,889.731c-0.421,0.058-0.84,0.116-1.263,0.166c0.684-0.051,1.297-0.101,1.297-0.101L712.03,889.731z"/>
	<path id="path3436" marker-end="none" marker-mid="none" marker-start="none" fill="#FFFFFF" d="M776.146,738.521
		c0.229,57.158-24.151,103.843-54.456,104.273c-30.302,0.432-55.052-45.557-55.28-102.715l0,0
		c-0.229-57.158,24.151-103.843,54.456-104.274C751.167,635.375,775.918,681.362,776.146,738.521z"/>
	<path id="path3446" marker-end="none" marker-mid="none" marker-start="none" fill="#B3B3B3" d="M775.273,737.666
		c0.215,55.218-22.801,100.316-51.408,100.73c-28.606,0.417-51.971-44.006-52.188-99.223
		c-0.214-55.217,22.801-100.314,51.409-100.732C751.69,638.026,775.056,682.451,775.273,737.666L775.273,737.666z"/>
	<path id="path3440" marker-end="none" marker-mid="none" marker-start="none" fill="#FFFFFF" d="M718.198,669.906
		c-18.202,2.107-33.339,31.858-34.188,67.974c-0.873,37.279,13.823,67.297,32.804,66.986c5.386-0.089,8.405-1.819,15.173-7.041
		c6.767-5.224,31.082-30.846,28.591-64.797c-3.208-43.733-21.308-54.324-25.481-57.961c-4.172-3.639-8.713-5.372-15.111-5.268
		C719.392,669.809,718.784,669.84,718.198,669.906z"/>
	
		<linearGradient id="path3719_1_" gradientUnits="userSpaceOnUse" x1="391.4697" y1="691.1973" x2="391.4722" y2="690.366" gradientTransform="matrix(37.1413 0 0 -41.9452 -13820.7139 29737.6543)">
		<stop  offset="0" style="stop-color:#575757"/>
		<stop  offset="1" style="stop-color:#575757;stop-opacity:0"/>
	</linearGradient>
	<path id="path3719" fill="url(#path3719_1_)" d="M737.034,734.051c-3.088,6.428-4.024,6.568-5.488,7.898
		c-1.658,1.506-5.207-2.051-8.437,0.766c-5.878,5.123-10.859-1.827-16.284-4.24c-5.426-2.411-5.423,0.146-8.737,1.201
		c-3.317,1.055-3.453,1.502-7.209-1.335c-0.865-0.654-1.274-4.399-2.881-8.695c-2.265,22.636,0.905,46.245,14.561,64.433
		c6.177,8.568,19.146,9.805,26.349,1.762c9.503-7.797,16.934-17.857,21.815-29.018c-0.544,0.181-1.111,0.369-1.707,0.48
		c-11.735-0.132-13.058-15.406-13.227-24.322C736.133,738.861,736.139,738.697,737.034,734.051z"/>
	<path id="path3442" marker-end="none" marker-mid="none" marker-start="none" fill="#B3B3B3" d="M758.439,740.091
		c-0.12,12.698-4.126,22.742-8.952,22.434c-4.825-0.309-8.643-10.854-8.524-23.552c0.117-12.699,4.125-22.744,8.949-22.435
		C754.737,716.847,758.555,727.391,758.439,740.091z"/>
	<path id="path3444" marker-end="none" marker-mid="none" marker-start="none" fill="#878787" d="M716.929,655.825
		c-20.86,0.123-38.467,36.932-39.313,82.165c-0.843,45.234,15.396,81.84,36.258,81.718c13.46-0.08,25.562-15.432,32.687-38.466
		c-5.765,8.54-11.731,14.39-14.583,16.591c-6.767,5.223-9.778,6.938-15.164,7.024c-18.98,0.311-33.677-29.703-32.804-66.983
		c0.849-36.115,15.982-65.859,34.183-67.964c0.587-0.068,1.201-0.106,1.794-0.117c6.396-0.104,10.941,1.645,15.115,5.282
		c1.717,1.497,5.801,4.164,10.23,9.85C738.731,667.074,728.542,655.755,716.929,655.825z M745.497,684.84l-0.049,0.249
		c0.017,0.022,0.032,0.046,0.049,0.066V684.84z"/>
	<path id="path3462" marker-end="none" marker-mid="none" marker-start="none" fill="#CCCCCC" d="M604.304,712.429
		c-8.586-0.07-19.494,3.086-34.78,4.983c-23.422,2.905-95.086,8.836-95.086,8.836l-18.785,1.495
		c-64.643,4.508-145.83-0.749-145.83-0.749s-7.502,6.772-11.261,10.531c-3.757,3.757-5.273,24.796-3.77,36.822
		c1.503,12.025,7.524,22.454,7.524,22.454l1.492,1.195c0,0,112.01,3.416,169.135-1.096c57.125-4.508,130.031-15.794,142.057-21.806
		c12.028-6.015,14.285-23.303,14.285-29.316c0-6.012-7.354-24.536-9.967-27.239C614.968,714.037,610.179,712.477,604.304,712.429z"
		/>
	<path id="path8082" marker-end="none" marker-mid="none" marker-start="none" fill="#333333" d="M204.322,706.283
		c-0.396,0.038-0.792,0.072-1.195,0.115C203.532,706.354,203.925,706.321,204.322,706.283z"/>
	<path id="path8080" marker-end="none" marker-mid="none" marker-start="none" fill="#333333" d="M215.4,706.915
		c0.243,0.069,0.477,0.153,0.715,0.23C215.876,707.068,215.643,706.984,215.4,706.915z"/>
	<path id="path3468" marker-end="none" marker-mid="none" marker-start="none" fill="#999999" d="M272.353,651.723
		c-0.564,0-1.147,0.118-1.709,0.398c-2.256,1.127-10.233,6-14.369,9.101c-4.134,3.102-6.477,7.718-6.194,13.355
		c0.281,5.637,4.966,122.702,10.978,128.901c6.014,6.204,14.855,8.55,21.525,5.73c5.927-2.502,17.96-9.923,20.695-11.625
		l-0.963-0.782c0,0-6.021-10.429-7.524-22.454c-1.503-12.026,0.013-33.065,3.77-36.822c3.67-3.67,10.722-10.041,11.063-10.349
		l0.017-0.183c0,0-4.313-8.92-7.507-19.349c-3.195-10.429-5.747-21.808-5.747-21.808s-4.51-0.465-6.296-6.195
		c-1.785-5.731,1.512-13.339,1.512-13.339s-0.474-2.443-1.977-3.852c-1.503-1.41-10.981-7.709-12.672-8.837
		C275.685,652.77,274.044,651.723,272.353,651.723z"/>
	<path id="path8062" marker-end="none" marker-mid="none" marker-start="none" fill="#333333" d="M91.463,769.697
		c8.173,32.187,24.381,58.272,45.99,72.383v0.033c19.448,13.196,42.946,17.966,62.601,19.282
		c16.502,1.105,39.793-0.076,51.604-0.829c31.976-0.662,62.213-24.7,82.149-61.871c-18.001-0.331-30.096-0.73-30.096-0.73
		l-0.432-0.381c-2.735,1.702-14.768,9.123-20.695,11.625c-6.67,2.819-15.511,0.474-21.525-5.73c-0.92-0.948-1.81-4.518-2.657-9.865
		C208.179,791.478,140.5,780.001,91.463,769.697z"/>
	<path id="path3474" marker-end="none" marker-mid="none" marker-start="none" fill="#E2E3DB" d="M422.301,662.419
		c-0.503-0.002-1.003,0.009-1.496,0.017c-0.525,0.009-1.049,0.03-1.562,0.05c-13.22,0.488-112.594,3.28-127.674,3.704
		c0.004,0.024,0.033,0.114,0.033,0.114s-3.297,7.607-1.512,13.339c1.786,5.73,6.296,6.195,6.296,6.195s0.016,0.064,0.016,0.066
		c0.161-0.007,109.082-4.281,123.54-4.816c6.168-0.229,13.254,0.596,18.966,3.388c5.713,2.792,10.377,7.06,13.288,16.176
		c3.466,10.855,5.039,24.059,6.145,39.232c1.831,6.195,21.186,19.077,18.569-1.361c-1.15-15.787-2.5-29.391-7.009-43.518
		c-4.317-13.525-13.199-22.537-22.82-27.238C438.625,663.634,429.856,662.438,422.301,662.419z"/>
	<path id="path3486" marker-end="none" marker-mid="none" marker-start="none" fill="#BABABA" d="M366.743,506.31
		c-33.066,0.111-60.023,23.382-63.082,53.598c-3.09,0-7.317,0.692-7.317,4.434c0,4.266,2.938,5.216,7.168,5.216
		c2.159,31.71,30.406,57.365,64.909,58.066c35.908,0.727,65.057-25.846,65.057-59.329c0-33.48-29.149-61.24-65.057-61.968
		C367.86,506.313,367.302,506.308,366.743,506.31z"/>
	<path id="path3488" marker-end="none" marker-mid="none" marker-start="none" fill="#454545" d="M420.291,567.907
		c-0.663,29.249-25.896,52.448-56.361,51.813c-30.465-0.638-54.625-24.866-53.964-54.118c0.664-29.253,25.897-52.449,56.362-51.813
		S420.953,538.653,420.291,567.907z"/>
	<path id="path3490" marker-end="none" marker-mid="none" marker-start="none" fill="#D7E3F4" d="M409.229,568.268
		c-0.578,27.311-22.593,48.969-49.176,48.375c-26.581-0.593-47.659-23.214-47.083-50.523c0.579-27.312,22.595-48.969,49.176-48.376
		S409.808,540.958,409.229,568.268L409.229,568.268z"/>
	<path id="path3505" marker-end="none" marker-mid="none" marker-start="none" fill="#B3B3B3" d="M470.487,458.898
		c-0.449,18.588-17.515,33.331-38.121,32.926c-20.604-0.402-36.944-15.801-36.496-34.39c0.448-18.589,17.515-33.333,38.12-32.928
		C454.594,424.91,470.934,440.308,470.487,458.898L470.487,458.898z"/>
	<path id="path3499" marker-end="none" marker-mid="none" marker-start="none" fill="#454545" d="M466.195,459.123
		c-0.407,17.451-15.887,31.29-34.576,30.912c-18.69-0.379-33.513-14.834-33.106-32.286c0.407-17.452,15.886-31.292,34.576-30.912
		C451.778,427.217,466.601,441.671,466.195,459.123z"/>
	
		<radialGradient id="path3501_1_" cx="706.2891" cy="439.062" r="29.5308" gradientTransform="matrix(1.2567 -0.5304 -0.5815 -1.3778 -202.7008 1438.1985)" gradientUnits="userSpaceOnUse">
		<stop  offset="0" style="stop-color:#E8B700"/>
		<stop  offset="0.4567" style="stop-color:#E2B500"/>
		<stop  offset="1" style="stop-color:#FFE400"/>
	</radialGradient>
	<path id="path3501" marker-end="none" marker-mid="none" marker-start="none" fill="url(#path3501_1_)" d="M458.301,461.605
		c-1.354,14.964-13.74,26.928-28.686,26.594c-15.85-0.354-28.714-13.857-28.714-30.144c0-16.283,12.864-29.214,28.714-28.858
		c14.599,0.325,26.667,11.811,28.477,26.349"/>
	<path id="path3512" marker-end="none" marker-mid="none" marker-start="none" fill="#5D536C" d="M217.665,275.122l64.831-147.463
		c6.032-11.554,16.898-17.822,32.306-19.12l203.066-0.439c16.918,0.039,18.205,10.067,15.604,22.636l-41.537,151.86
		c-5.974,15.758-15.582,20.815-26.811,21.096l-236.03-5.273C219.833,298.398,213.799,286.975,217.665,275.122z"/>
	<path id="path3235" marker-end="none" marker-mid="none" marker-start="none" fill="#FFFFFF" d="M593.617,302.79
		c-3.007,0.752,0.097-0.129-0.133-0.072c-5.825,1.504-61.447,17.585-61.447,17.585c-4.296,1.2-7.378,2.835-9.451,5.249
		c-2.071,2.414-2.872,5.399-3.106,8.538l-4.767,47.767c-0.148,0.972,0.252,1.945,1.039,2.532c0.788,0.587,1.833,0.694,2.722,0.273
		c0.889-0.418,1.474-1.291,1.522-2.274l4.784-47.833c0.005-0.022,0.011-0.045,0.017-0.067c0.189-2.543,0.695-4.163,1.827-5.48
		c1.132-1.32,3.135-2.548,6.858-3.589c0.007,0,0.012,0,0.017,0l61.447-17.584c1.319-0.333,1.609-1.423,1.412-2.772
		C596.162,303.713,594.979,302.733,593.617,302.79L593.617,302.79z"/>
	<path id="path3514" marker-end="none" marker-mid="none" marker-start="none" fill="#6D6F84" d="M227.169,272.345l61.474-139.85
		c5.719-10.958,16.021-16.9,30.633-18.132l192.545-0.417c16.043,0.038,17.262,9.547,14.795,21.466l-39.386,144.018
		c-5.663,14.945-14.772,19.744-25.422,20.009l-223.802-5.002C229.226,294.419,223.504,283.586,227.169,272.345z"/>
	<path id="path3518" marker-end="none" marker-mid="none" marker-start="none" fill="#D5E5FF" d="M471.467,249.994l15.626-108.637
		l-68.562-3.721c-7.612,0.325-10.622,5.716-11.162,13.819l-22.698,93.225L471.467,249.994z"/>
	<path id="path3524" marker-end="none" marker-mid="none" marker-start="none" fill="#5D536C" d="M257.967,110.085
		c26.635-0.665,17.848,10.079,16.536,18.415l-38.899,89.821l-24.615,56.186c-10.198,20.285-19.543,22.671-28.751,22.174
		l-112.746-6.014c-12.88,0.882-11.891-8.09-5.826-20.67l74.977-139.431c7.109-12.321,15.01-16.34,23.114-18.228L257.967,110.085z"/>
	<path id="path7919" marker-end="none" marker-mid="none" marker-start="none" fill="#6D6F84" d="M261.209,113.237
		c-0.752-0.002-1.539,0.012-2.359,0.033l-91.749,2.176c-7.728,1.822-15.26,5.705-22.04,17.606L73.558,267.718
		c-5.783,12.149-6.718,20.817,5.564,19.966l107.512,5.812c4.505,0.247,9.052-0.241,13.718-3.42
		c3.461-3.364,6.987-8.314,10.631-15.563l24.614-56.19l38.9-89.822c0.471-2.998,1.915-6.305,2.326-9.284l-0.017,0.05
		C276.122,115.786,272.478,113.264,261.209,113.237z"/>
	<path id="path3534" fill="#D5E5FF" d="M157.123,133.011c-6.081,0.021-11.696,0.803-15.396,3.887L72.932,266.464
		c-5.783,12.15-6.718,20.817,5.565,19.966l17.771,0.963l0.033-0.05l71.952-153.868C164.581,133.265,160.772,132.998,157.123,133.011
		z M175.743,133.875l-70.772,153.982l42.701,2.309c7.336-30.485,30.883-52.818,58.779-52.818c6.243,0,12.265,1.114,17.939,3.191
		l0.298-0.018l10.281-23.452l34.548-79.791L175.743,133.875L175.743,133.875z M206.452,246.054c-1.384,0-2.761,0.066-4.118,0.198
		c-0.423,0.041-0.842,0.097-1.262,0.149c-1.636,0.21-3.25,0.504-4.833,0.897c-1.43,0.356-2.839,0.794-4.219,1.296l6.859,32.321
		l9.236-1.512l13.004-30.71C215.867,247.315,209.709,246.054,206.452,246.054L206.452,246.054z M186.623,250.969
		c-4.577,2.383-8.773,5.557-12.474,9.384c-6.858,7.092-11.992,16.413-14.567,26.973l33.6-5.48L186.623,250.969z"/>
	<path id="path3551" marker-end="none" marker-mid="none" marker-start="none" fill="#FFFFFF" d="M163.347,497.049
		c-5.241,53.633-39.14,94.486-75.668,91.19c-36.529-3.295-61.923-49.499-56.684-103.132c5.24-53.633,39.139-94.487,75.668-91.192
		C143.192,397.211,168.585,443.415,163.347,497.049z"/>
	<path id="path3553" marker-end="none" marker-mid="none" marker-start="none" fill="#B3B3B3" d="M155.308,497.073
		c-4.923,51.065-36.774,89.961-71.096,86.823c-34.321-3.139-58.182-47.128-53.258-98.193c4.923-51.064,36.772-89.96,71.095-86.823
		C136.372,402.018,160.23,446.007,155.308,497.073z"/>
	<path id="path3555" marker-end="none" marker-mid="none" marker-start="none" fill="#878787" d="M118.253,414.875
		c-31.478,0.609-59.774,33.18-64.327,75.322c-4.777,44.216,18.384,82.306,51.687,85.022c3.353,0.273,6.671,0.173,9.95-0.266
		l0.066-0.017c20.542-14.09,36.333-43.16,39.678-77.863c3.084-31.985-5.13-61.191-20.13-79.325
		c-3.896-1.446-7.991-2.376-12.258-2.724C121.36,414.898,119.802,414.846,118.253,414.875z"/>
	<path id="path3557" marker-end="none" marker-mid="none" marker-start="none" fill="#FFFFFF" d="M148.372,495.395
		c-3.535,35.996-26.404,63.416-51.046,61.204c-24.643-2.212-41.774-33.222-38.239-69.216c3.535-35.997,26.403-63.415,51.046-61.204
		C134.774,428.391,151.906,459.399,148.372,495.395z"/>
	<path id="path3559" marker-end="none" marker-mid="none" marker-start="none" fill="#B3B3B3" d="M94.965,490.241
		c-1.147,12.022-8.574,21.181-16.575,20.442c-8.002-0.738-13.565-11.098-12.418-23.119c1.148-12.024,8.575-21.183,16.577-20.443
		C90.55,467.859,96.113,478.217,94.965,490.241z"/>
	<path id="path3575" marker-end="none" marker-mid="none" marker-start="none" fill="#E2E3DB" d="M20.476,633.069
		c-2.053,0.122-4.659,2.455-5,7.642c-0.421,6.409,4.033,9.085,6.328,9.5c-0.228,0.232,4.831,2.355,24.333,6.859
		c17.785,4.092,41.994,8.364,67.931,11.527c51.036,6.225,88.276,11.211,136.345,14.333l0.033-0.101
		c-0.195-4.352-0.327-7.485-0.365-8.253c-0.178-3.555,0.69-6.699,2.39-9.318c-36.771-2.399-71.074-6.763-107.286-11.176
		l-0.196-0.096c-40.362,7.632-69.343-3.536-85.266-12.612l-0.083,0.066c-20.131-3.056-37.868-8.104-37.868-8.104
		C21.39,633.138,20.95,633.041,20.476,633.069z"/>
	<path id="path3581" marker-end="none" marker-mid="none" marker-start="none" fill="#999999" d="M8.401,616.445
		c-0.041,0.003-0.077,0.006-0.117,0.017c-2.486,0.62-11.194,2.79-11.194,2.79v0.015c-6.799,2.198-9.013,9.956-8.703,14.917
		c0.311,4.972,4.357,112.818,4.667,117.792c0.311,4.972,4.668,11.491,11.195,10.246c6.527-1.242,16.775-2.482,21.126-3.104
		c3.79-0.541,4.75-3.908,4.933-4.767c-1.518-0.617-2.371-1.109-2.441-1.445c-0.697-3.288-11.511-17.091-11.511-23.619
		c0-6.524,7.783-27.674,12.756-33.268s16.028-5.862,16.028-5.862l-19.732-38.367l-0.033-0.133c-2.659-0.858-3.67-1.345-3.571-1.445
		c-2.294-0.415-6.749-3.091-6.328-9.5c0.358-5.456,3.222-7.736,5.315-7.625l-4.153-7.323c-2.985-4.345-6.555-9.083-8.104-9.317
		C8.487,616.438,8.442,616.44,8.401,616.445z"/>
	<path id="path3587" marker-end="none" marker-mid="none" marker-start="none" fill="none" d="M-22.101,615.762
		c0,0,1.538,11.647,10.438,16.812"/>
	<path id="path3591" marker-end="none" marker-mid="none" marker-start="none" fill="#CCCCCC" d="M-10.451,664.66
		c0,0-3.305,0.437-7.59,10.215c-4.285,9.779-7.902,22.976-8.122,26.492c-0.22,3.516,6.801,21.865,10.098,25.162
		c3.164,3.164,7.743,7.926,8.122,8.32l0.266-0.448c-0.738-18.687-1.834-47.255-2.707-69.69L-10.451,664.66z M-7.943,734.85
		l-0.1,0.167l0.332,0.084C-7.71,735.101-7.927,734.867-7.943,734.85z"/>
	<path id="path3621" marker-end="none" marker-mid="none" marker-start="none" fill="#FFFFFF" d="M835.554,397.188
		c-2.596,0-4.835,2.294-5.798,5.563l1.113-0.201c-2.031,0.592-4.052,1.197-5.349,1.429c-7.989,1.118-13.319,1.838-21.374,2.342
		c-2.696,0.16-5.299,0.76-5.449,3.455c-0.15,2.694,1.426,3.824,4.087,4.286c8.905-0.171,18.071,0.438,26.938-0.399
		c0.646,0.074,1.353,0.081,2.076,0.049c1.05,1.137,2.348,1.81,3.755,1.81c3.474,0,17.105-4.421,17.105-9.482
		c0.222-0.706,0.299-1.475,0.217-2.259c-0.239-2.3-1.927-4.138-4.102-4.635C845.612,397.101,837.059,397.188,835.554,397.188z"/>
	<path id="path4289" fill="#333333" d="M1311.055,594.371c0.252,3.94,0.394,7.975,0.434,12.075
		c1.567,0.692,4.071,1.709,23.384,9.567c13.405,5.331,27.683,10.985,31.227,12.256c7.078,2.538,20.378,5.464,41.392,6.927
		c5.279-4.568,5.147-10.882,1.494-11.427c-20.615-1.436-33.521-4.599-40.61-7.093c-3.551,0.381-4.884-0.755-5.58-1.843l-0.334-0.118
		c-6.253-2.433-16.392-6.394-25.661-10.08C1323.493,599.342,1311.233,594.441,1311.055,594.371z"/>
	<path id="path4324" marker-end="none" marker-mid="none" marker-start="none" fill="#6A6A6A" d="M1378.438,560.255
		c-0.398,2.28-0.794,4.567-1.211,6.844c3.438-0.814,7.044-1.727,8.853-2.292c3.517-1.1,0.003-2.422-1.096-2.642
		C1384.105,561.99,1380.187,560.795,1378.438,560.255z"/>
	<path id="path6924" marker-end="none" marker-mid="none" marker-start="none" fill="#918A6F" d="M826.351,700.121
		c3.54-7.999-0.056,0.381-3.391-1.502l-4.099,3.329c0.341,0.938,5.169,14.248,5.197,15.348
		C825.447,715.792,826.301,701.017,826.351,700.121z"/>
	<path id="path3878" marker-end="none" marker-mid="none" marker-start="none" fill="#B3B3B3" d="M1281.764,629.094
		c-0.074,9.102-2.783,16.314-6.051,16.113c-3.269-0.201-5.86-7.742-5.787-16.843c0.071-9.101,2.78-16.313,6.051-16.112
		C1279.244,612.453,1281.835,619.995,1281.764,629.094L1281.764,629.094z"/>
	<path id="path7092" marker-end="none" marker-mid="none" marker-start="none" fill="#B3B3B3" d="M-16.215,605.216
		c1.841,0.612,3.828,3.517,4.269,6.694c0.339,2.44,0.999,6.635,4.808,10.067c1.26-1.4,2.224-2.062,4.228-2.711v-0.015
		c0,0,0.633-0.167,0.698-0.183v-0.017c0,0-2.974-1.423-5.282-7.027C-9.744,606.562-10.961,605.277-16.215,605.216z"/>
	<path id="path7121" marker-end="none" marker-mid="none" marker-start="none" fill="#ABABAB" d="M-25.449,705.252
		c1.839,6.653,6.776,18.669,9.384,21.277c3.164,3.164,7.743,7.926,8.122,8.32l0.266-0.448c-0.187-4.732-0.458-11.911-0.681-17.654
		C-16.043,712.557-21.556,708.72-25.449,705.252z M-7.943,734.85l-0.1,0.167l0.332,0.084C-7.71,735.101-7.927,734.867-7.943,734.85z
		 M16.623,726.663c-0.172,1.021-0.267,1.912-0.267,2.623c0,6.528,10.814,20.331,11.511,23.619
		c0.97,4.583,142.574,36.965,230.534,40.708c-0.946-5.971-1.835-14.22-2.658-23.552C203.124,765.209,75.217,744.739,16.623,726.663z
		 M629.15,748.687c-124.974,27.589-272.22,24.673-334.624,23.004c0.075,0.92,0.16,1.817,0.265,2.657
		c1.503,12.025,7.524,22.454,7.524,22.454l1.496,1.197c0,0,112.006,3.414,169.131-1.098c57.125-4.508,130.031-15.794,142.057-21.806
		C625.449,769.869,628.523,756.144,629.15,748.687z"/>
	<path id="rect3641" marker-end="none" marker-mid="none" marker-start="none" fill="none" d="M12.928,235.466
		c-0.32-3.388,0.943-8.015,2.355-8.147l8.026-0.759c1.412-0.131,2.458,2.539,3.125,5.876c0.896,4.48,5.019,46.608,5.019,46.608
		c0.32,3.389-0.56,6.222-1.971,6.356l-5.865,0.675"/>
	
		<path id="path4239" marker-end="none" marker-mid="none" marker-start="none" opacity="0.627" fill="#BBBFB0" enable-background="new    " d="
		M1336.368,515.86c-0.557,0.018-1.138,0.066-1.743,0.147c-9.715,1.32-89.004,16.985-100.653,18.471
		c-11.386,1.453-18.856,11.398-20.062,16.941c-4.226,12.249-3.902,16.898-5.433,28.02c3.452-10.322,4.171-12.365,8.189-24.066
		c1.202-5.542,8.197-11.087,19.533-12.541c11.595-1.485,88.787-16.27,98.458-17.588c9.669-1.318,9.677-0.439,10.994,5.714
		c1.242,5.791,2.289,30.099,3.141,41.022c0.144-0.588,0.216-1.098,0.183-1.46c-0.882-9.67,1.091-36.482-0.232-42.636
		C1347.501,522.116,1344.716,515.568,1336.368,515.86z"/>
	<path id="path6915" marker-end="none" marker-mid="none" marker-start="none" fill="none" d="M854.619,544.934
		c-0.001-0.062-0.223-0.748-0.796-0.623l-157.322,26.575c-21.12,0.942-25.194,16.093-29.765,30.826l-25.51,71.22
		c-17.88,37.498-15.03,30.914-45.394,36.142c-12.647,2.179-72.34,10.812-112.991,10.631"/>
	<path id="path7900" marker-end="none" marker-mid="none" marker-start="none" fill="#6D6F84" d="M939.327,129.265l-101.383,0.266
		c-0.504,2.548-0.37,5.989,0.516,10.564l0.017-0.1l41.855,0.714c4.272-0.341,5.451,1.93,4.5,6.014l-28.684,85.719
		c3.427,22.006,7.025,46.225,7.025,46.225c0.679,3.281,1.341,7.305,3.422,10.38c1.882,0.396,4.48,0.549,8.538,0.415l92.928-4.95
		c14.213-0.946,13.277-6.603,12.389-15.928c-1.943-10.255-3.899-20.58-5.895-30.959l-4.601,0.066
		c-3.352,0.079-3.597-2.018-3.455-4.385l1.595-28.301h0.033c-4.14-20.263-8.614-40.592-13.703-60.79
		C952.588,136.99,952.438,129.622,939.327,129.265L939.327,129.265z M852.194,207.876c0.195,1.152,0.418,2.43,0.632,3.72
		C852.607,210.277,852.393,209.05,852.194,207.876z M1056.437,237.374c-29.374,0.049-51.222,0.296-51.537,0.298
		c2.046,13.184,4.08,26.182,5.315,33.619l2.274,7.257c4.143,2.992,10.263,2.771,15.93,2.592c5.256-0.168,67.651-3.539,76.085-4.07
		c8.435-0.53,7.313-11.844,5.814-20.86c-0.374-2.239-1.67-9.226-3.456-18.669c-12.733-0.104-25.47-0.161-37.42-0.167
		C1064.979,237.373,1060.635,237.367,1056.437,237.374z M1135.697,237.923l-0.019,0.049c1.966,10.957,3.764,21.217,4.7,27.256
		c0.487,3.114,1.368,5.476,2.51,7.275c8.617-0.561,69.558-4.119,76.716-4.02c10.338,0.146,10.444-5.613,9.053-12.341l-0.05-0.033
		c-6.829-7.861-18.198-14.724-37.104-16.178c-13.555-1.042-33.39-1.632-55.809-2.008H1135.697z"/>
	<path id="path3201" marker-end="none" marker-mid="none" marker-start="none" fill="#D5E5FF" d="M990.731,130.494
		c-1.771,0.021-3.219,0.359-4.385,0.913h-0.017c-1.378,5.54,0.681,12.523,0.681,12.523c-0.375,0,9.951,41.912,11.08,49.43
		c0.666,4.453,3.762,24.685,6.809,44.311c0.359-0.002,28.841-0.316,64.543-0.298c11.95,0.006,24.687,0.063,37.42,0.167
		c-5.411-28.617-15.326-80.001-17.722-91.832c-3.186-15.736-17.422-13.786-20.048-13.786c-2.624,0-63.149-0.881-77.579-1.412
		C991.246,130.5,990.984,130.491,990.731,130.494z M1118.656,134.331c-1.421,5.263,0.497,12.191,0.497,12.191
		c-0.329,0,7.248,37.867,8.238,44.928c0.638,4.544,4.74,26.731,8.289,46.522l0.017-0.049c22.417,0.376,42.252,0.967,55.807,2.008
		c18.905,1.455,30.274,8.317,37.104,16.178l0.051,0.033c-0.369-1.78-0.847-3.623-1.263-5.447
		c-1.905-8.371-17.386-88.156-20.329-102.911c-2.801-14.03-11.597-12.424-13.903-12.424
		C1191.256,135.36,1142.631,134.808,1118.656,134.331z M838.476,139.994l-0.016,0.1c0.065,0.337,0.125,0.664,0.198,1.014
		c0,0,9.475,43.598,12.856,62.766c1.146,6.503,2.873,17.268,4.634,28.567l38.134,0.868c0.502-0.013,13.912-87.252,13.599-87.491
		c0.95-4.084-3.394-5.451-7.666-5.109L838.476,139.994z M962.445,177.434l-4.759,55.872c-0.141,2.365,0.104,4.461,3.454,4.383
		l13.415-0.066c-2.083-10.828-4.202-21.719-6.43-32.62L962.445,177.434z M1228.69,264.513c-0.054,0.128-0.104,0.258-0.165,0.381
		C1228.589,264.77,1228.637,264.644,1228.69,264.513z M1224.821,267.835c-0.14,0.047-0.267,0.092-0.415,0.133
		C1224.549,267.929,1224.686,267.88,1224.821,267.835z"/>
	<path id="path7959" marker-end="none" marker-mid="none" marker-start="none" fill="#D5E5FF" d="M286.089,139.679l-58.913,132.674
		c-0.596,1.827-0.952,3.638-1.079,5.399l91.848-12.491l28.786-113.462c1.661-6.123-0.198-10.292-9.352-10.408L286.089,139.679z"/>
	<path id="path7946" marker-end="none" marker-mid="none" marker-start="none" fill="#6D6F84" d="M237.707,248.402l-3.921,8.919
		h0.05c8.364,7.097,14.606,17.483,17.938,29.597c0,0,0.527,3.286,1.08,7.857l12.34,0.282c-0.49-4.774-0.995-9.584-0.995-9.584
		C259.164,269.809,249.733,256.726,237.707,248.402z"/>
	<path id="path3209" marker-end="none" marker-mid="none" marker-start="none" fill="#D5E5FF" d="M699.374,140.144l-24.615,110.683
		c0,0,38.699,0.749,44.713,0.749c5.77,0,11.534,2.429,12.988,5.945l-20.811-117.144L699.374,140.144z"/>
	<path id="path8094" marker-end="none" marker-mid="none" marker-start="none" fill="#A1A29C" d="M15.459,641.624
		c0.036,5.753,4.162,8.192,6.344,8.587c-0.228,0.232,4.831,2.355,24.333,6.859c17.785,4.092,41.994,8.364,67.931,11.527
		c51.036,6.225,88.276,11.211,136.345,14.333l0.033-0.101c-0.19-4.237-0.307-7.168-0.349-8.039c-1.892-0.183-3.874-0.367-5.98-0.547
		l-0.033,0.099c-48.067-3.119-85.307-8.108-136.344-14.332c-25.938-3.164-50.146-7.434-67.931-11.528
		c-19.502-4.501-24.56-6.627-24.333-6.858C15.471,641.622,15.464,641.625,15.459,641.624z"/>
	<path id="path2484" marker-end="none" marker-mid="none" marker-start="none" fill="#5D536C" d="M593.624,302.798
		c-0.05,0.012-0.037,0.006-0.083,0.016c0.044,0.141,0.078,0.281,0.1,0.433c0.197,1.348-0.091,2.438-1.412,2.774l-61.437,17.588
		c-0.006,0-0.012,0-0.017,0c-3.726,1.04-5.728,2.269-6.861,3.589c-1.132,1.318-1.636,2.937-1.828,5.479
		c-0.004,0.022-0.008,0.045-0.016,0.067l-4.784,47.835c-0.046,0.979-0.638,1.856-1.527,2.274c-0.303,0.144-0.624,0.21-0.947,0.234
		c0.167,0.512,0.499,0.96,0.947,1.295c0.788,0.587,1.819,0.701,2.707,0.281c0.889-0.418,1.48-1.292,1.529-2.275l4.782-47.833
		c0.007-0.022,0.012-0.045,0.019-0.067c0.188-2.543,0.694-4.163,1.827-5.48c1.132-1.32,3.133-2.548,6.858-3.589
		c0.005,0,0.012,0,0.017,0l61.454-17.588c1.32-0.335,1.609-1.426,1.412-2.773C596.167,303.708,594.984,302.74,593.624,302.798z"/>
	<path id="path3605" marker-end="none" marker-mid="none" marker-start="none" fill="#CBCBCB" d="M24.862,325.708
		c-0.005-1.265-0.011-2.53-0.018-3.793c-0.055-9.136-0.191-18.438-0.482-25.827c-0.145-3.695-0.329-6.906-0.564-9.417
		c-0.118-1.257-0.258-2.344-0.415-3.256c-0.157-0.912-0.263-1.57-0.698-2.44c-2.796-5.593-12.253-22.814-12.253-22.814
		c-0.476-0.882-1.407-1.422-2.408-1.396c-0.941,0.024-1.799,0.542-2.257,1.366c-0.458,0.821-0.445,1.825,0.031,2.636
		c0,0,9.658,17.625,12.137,22.583c-0.106-0.212,0.096,0.282,0.216,0.979c0.12,0.699,0.238,1.668,0.349,2.841
		c0.221,2.344,0.404,5.496,0.547,9.134c0.287,7.281,0.427,20.07,0.482,29.174 M19.5,348.437c-0.04,5.662,0.069,3.07,0.069,3.07
		c-0.019,0.954,0.476,1.844,1.294,2.334c0.819,0.488,1.837,0.501,2.667,0.033c0.831-0.468,1.348-1.347,1.354-2.3
		c0,0-0.11,2.478-0.069-3.131"/>
	<path id="path3259" marker-end="none" marker-mid="none" marker-start="none" fill="#ABABAB" d="M1410.146,587.544
		c-0.718,1.9-3.938,2.21-3.938,2.21s-38.415,7.673-42.934,7.673c-3.035,0-4.577,0-6.379,0c-0.045,0.553-0.072,1.042-0.051,1.412
		c0.221,3.737,4.84,13.88,5.5,15.198c0.657,1.317,1.76,3.522,7.474,2.425c5.714-1.102,27.03-5.287,29.446-5.947
		c2.418-0.658,2.937-1.579,5.134-5.315c2.198-3.735,5.797-10.541,5.863-15.962C1410.268,588.753,1410.228,588.167,1410.146,587.544z
		"/>
	
		<linearGradient id="path3753_1_" gradientUnits="userSpaceOnUse" x1="395.6382" y1="693.376" x2="395.7017" y2="692.6984" gradientTransform="matrix(24.64 0 0 -26.3627 -8493.248 18916.1113)">
		<stop  offset="0" style="stop-color:#575757"/>
		<stop  offset="1" style="stop-color:#575757;stop-opacity:0"/>
	</linearGradient>
	<path id="path3753" fill="url(#path3753_1_)" d="M1268.057,626.291c-1.957,4.012-2.552,4.101-3.479,4.931
		c-1.051,0.94-3.3-1.28-5.348,0.477c-3.726,3.201-6.882-1.141-10.322-2.646c-3.438-1.507-3.438,0.09-5.538,0.75
		c-2.103,0.658-2.187,0.937-4.569-0.836c-0.548-0.405-2.614-2.142-3.633-4.824c-1.437,14.133-0.03,30.08,8.625,41.436
		c3.916,5.349,14.548,4.312,19.113-0.71c6.024-4.868,10.734-11.15,13.828-18.117c-0.345,0.112-0.705,0.229-1.082,0.3
		c-7.438-0.081-8.275-9.619-8.385-15.187C1267.485,629.292,1267.49,629.191,1268.057,626.291z"/>
	
		<linearGradient id="path3790_1_" gradientUnits="userSpaceOnUse" x1="388.8574" y1="693.793" x2="388.7535" y2="692.947" gradientTransform="matrix(50.1723 0 0 -40.7992 -19406.8203 28801.3438)">
		<stop  offset="0" style="stop-color:#575757"/>
		<stop  offset="1" style="stop-color:#575757;stop-opacity:0"/>
	</linearGradient>
	<path id="path3790" fill="url(#path3790_1_)" d="M96.916,482.158c2.111,6.812,3.018,7.086,4.27,8.615
		c1.42,1.736,5.452-1.263,8.233,1.996c5.062,5.932,11.008-0.214,16.73-1.805c5.72-1.588,5.342,0.941,8.468,2.471
		c3.125,1.532,3.193,1.993,7.325-0.263c0.952-0.519,1.905-4.164,4.125-8.177c1.355,23.071-7.6,45.621-23.858,61.598
		c-7.367,7.569-20.377,6.89-26.322-2.125c-15.602,7.402-38.483-21.065-34.956-55.565c-1.105,2.779,2.582-2.397,2.94,1.79
		c0.708,8.312,2.689,12.853,5.392,16.775c2.405,3.495,7.93,7.118,15.141,4.615c5.889-2.044,10.956-12.117,12.433-20.911
		C97.102,487.046,97.119,486.883,96.916,482.158L96.916,482.158z"/>
	
		<radialGradient id="path3841_1_" cx="586.4727" cy="537.1699" r="29.5335" gradientTransform="matrix(0.8721 -0.3612 -0.4035 -0.9384 137.1003 1177.7548)" gradientUnits="userSpaceOnUse">
		<stop  offset="0" style="stop-color:#E8B700"/>
		<stop  offset="0.4567" style="stop-color:#E2B500"/>
		<stop  offset="1" style="stop-color:#AE9C00"/>
	</radialGradient>
	<path id="path3841" fill="url(#path3841_1_)" d="M451.727,463.829c-0.938,10.192-9.536,18.34-19.908,18.112
		c-10.997-0.241-19.925-9.438-19.925-20.529c0-11.091,8.928-19.899,19.925-19.658c10.133,0.223,18.507,8.045,19.763,17.947"/>
	<g id="path3853" opacity="0.6066" filter="url(#filter3863)" enable-background="new    ">
		<path opacity="0.6167" fill="#FFFFFF" d="M439.364,436.709c9.788,6.393,10.812,17.528,2.292,24.871s-23.361,8.114-33.15,1.72l0,0
			c-9.785-6.392-10.812-17.528-2.291-24.87C414.735,431.088,429.577,430.317,439.364,436.709L439.364,436.709z"/>
	</g>
	<g id="path3867" opacity="0.9262" filter="url(#filter3863)" enable-background="new    ">
		<path opacity="0.6167" fill="#FFFFFF" d="M385.425,536.863c17.643,13.272,19.493,36.39,4.131,51.634
			c-15.361,15.245-42.117,16.844-59.762,3.573c-17.643-13.273-19.493-36.393-4.132-51.638
			C341.024,525.19,367.779,523.591,385.425,536.863L385.425,536.863z"/>
	</g>
	<path id="path3893" fill="#76705A" d="M1297.421,323.729c0,0,0.165,4.732,1.444,5.45c2.277,1.282,4.443,0.52,7.979,0.232
		c5.046-0.411,38.258-2.706,41.235-2.95c2.977-0.244,4.571-2.084,4.553-6.438l-0.232-0.229L1297.421,323.729z"/>
	<path id="path3895" fill="#76705A" d="M1298.308,339.678c0,0,0.164,4.732,1.443,5.452c2.278,1.28,4.444,0.519,7.981,0.232
		c5.044-0.411,38.257-2.708,41.232-2.951c2.979-0.245,4.574-2.085,4.554-6.439l-0.23-0.228L1298.308,339.678z"/>
	<path id="path3897" fill="#76705A" d="M1304.511,368.921c0,0,0.164,4.732,1.443,5.45c2.278,1.282,4.443,0.521,7.979,0.231
		c5.046-0.409,38.258-2.706,41.236-2.95c2.977-0.243,4.571-2.083,4.55-6.438l-0.229-0.227L1304.511,368.921z"/>
	<path id="path3899" fill="#76705A" d="M1305.396,384.871c0,0,0.164,4.732,1.442,5.452c2.28,1.28,4.443,0.519,7.98,0.231
		c5.046-0.41,38.258-2.706,41.235-2.951c2.979-0.245,4.574-2.084,4.551-6.438l-0.229-0.229L1305.396,384.871z"/>
	<g id="path3917" opacity="0.668" filter="url(#filter3863)" enable-background="new    ">
		<path opacity="0.6167" fill="#FFFFFF" d="M449.34,469.249c2.899,1.895,3.204,5.193,0.679,7.369
			c-2.525,2.175-6.921,2.403-9.822,0.51l0,0c-2.899-1.895-3.204-5.194-0.678-7.369C442.044,467.584,446.441,467.355,449.34,469.249z
			"/>
	</g>
</g>
</svg>
